HIERARCHY
ROOT Hips
{
	OFFSET 0.00000 0.00000 0.00000
	CHANNELS 6 Xposition Yposition Zposition Zrotation Yrotation Xrotation 
	JOINT LHipJoint
	{
		OFFSET 0 0 0
		CHANNELS 3 Zrotation Yrotation Xrotation
		JOINT LeftHip
		{
			OFFSET 1.57338 -1.94743 0.52196
			CHANNELS 3 Zrotation Yrotation Xrotation
			JOINT LeftKnee
			{
				OFFSET 2.60333 -7.15259 0.00000
				CHANNELS 3 Zrotation Yrotation Xrotation
				JOINT LeftAnkle
				{
					OFFSET 2.77855 -7.63400 0.00000
					CHANNELS 3 Zrotation Yrotation Xrotation
					JOINT LeftToe
					{
						OFFSET 0.19847 -0.54529 2.28466
						CHANNELS 3 Zrotation Yrotation Xrotation
						End Site
						{
							OFFSET 0.00000 -0.00000 1.17993
						}
					}
				}
			}
		}
	}
	JOINT RHipJoint
	{
		OFFSET 0 0 0
		CHANNELS 3 Zrotation Yrotation Xrotation
		JOINT RightHip
		{
			OFFSET -1.61527 -1.94743 0.52196
			CHANNELS 3 Zrotation Yrotation Xrotation
			JOINT RightKnee
			{
				OFFSET -2.53829 -6.97390 0.00000
				CHANNELS 3 Zrotation Yrotation Xrotation
				JOINT RightAnkle
				{
					OFFSET -2.80762 -7.71387 0.00000
					CHANNELS 3 Zrotation Yrotation Xrotation
					JOINT RightToe
					{
						OFFSET -0.30536 -0.83898 2.28801
						CHANNELS 3 Zrotation Yrotation Xrotation
						End Site
						{
							OFFSET -0.00000 -0.00000 1.21323
						}
					}
				}
			}
		}
	}
	JOINT lowerback
	{
		OFFSET 0 0 0
		CHANNELS 3 Zrotation Yrotation Xrotation
		JOINT Chest
		{
			OFFSET -0.04381 1.99497 -0.19778
			CHANNELS 3 Zrotation Yrotation Xrotation
			JOINT Chest2
			{
				OFFSET -0.01959 2.01295 -0.04372
				CHANNELS 3 Zrotation Yrotation Xrotation
				JOINT lowerneck
				{
					OFFSET 0 0 0
					CHANNELS 3 Zrotation Yrotation Xrotation
					JOINT Neck
					{
						OFFSET -0.05459 1.76913 0.09708
						CHANNELS 3 Zrotation Yrotation Xrotation
						JOINT Head
						{
							OFFSET 0.09461 1.77368 -0.11172
							CHANNELS 3 Zrotation Yrotation Xrotation
							End Site
							{
								OFFSET 0.03812 1.78157 -0.04834
							}
						}
					}
				}
				JOINT LeftCollar
				{
					OFFSET 0 0 0
					CHANNELS 3 Zrotation Yrotation Xrotation
					JOINT LeftShoulder
					{
						OFFSET 3.50922 1.24034 -0.28866
CHANNELS 3 Zrotation Xrotation Yrotation
						JOINT LeftElbow
						{
OFFSET 0 -5.401880 0.000000
CHANNELS 3 Zrotation Xrotation Yrotation
							JOINT LeftWrist
							{
OFFSET 0 -3.685590 0.000000
CHANNELS 3 Zrotation Xrotation Yrotation
								JOINT lhand
								{
									OFFSET 0 0 0
CHANNELS 3 Zrotation Xrotation Yrotation
									JOINT LFingers
									{
OFFSET 0 -0.617530 0.000000
CHANNELS 3 Zrotation Xrotation Yrotation
										End Site
										{
OFFSET 0 -0.497870 0.000000
										}
									}
								}
								JOINT LThumb
								{
OFFSET 0 0.000000 0.000000
CHANNELS 3 Zrotation Xrotation Yrotation
									End Site
									{
OFFSET 0 -0.505470 0.505470
									}
								}
							}
						}
					}
				}
				JOINT RightCollar
				{
					OFFSET 0 0 0
					CHANNELS 3 Zrotation Yrotation Xrotation
					JOINT RightShoulder
					{
						OFFSET -2.95373 1.39649 -0.27346
CHANNELS 3 Zrotation Xrotation Yrotation
						JOINT RightElbow
						{
OFFSET 0 -6.106700 -0.000000
CHANNELS 3 Zrotation Xrotation Yrotation
							JOINT RightWrist
							{
OFFSET 0 -3.630520 0.000000
CHANNELS 3 Zrotation Xrotation Yrotation
								JOINT rhand
								{
									OFFSET 0 0 0
CHANNELS 3 Zrotation Xrotation Yrotation
									JOINT RFingers
									{
OFFSET 0 -0.583850 0.000000
CHANNELS 3 Zrotation Xrotation Yrotation
										End Site
										{
OFFSET 0 -0.470710 0.000000
										}
									}
								}
								JOINT RThumb
								{
OFFSET 0 0.000000 0.000000
CHANNELS 3 Zrotation Xrotation Yrotation
									End Site
									{
OFFSET 0 -0.477900 0.477900
									}
								}
							}
						}
					}
				}
			}
		}
	}
}
MOTION
Frames: 8
Frame Time: 0.008333333333333333
-0.200900 18.657400 0.982300 3.019800 -23.959600 -0.359400 0.000000 0.000000 0.000000 -14.082500 -3.919400 -6.720800 2.495900 9.830400 28.429200 0.274700 9.129700 -17.074800 0.691300 -5.315200 -14.809800 0.000000 0.000000 0.000000 19.123500 14.403600 -2.793400 -2.428000 -9.705800 28.029200 -1.123400 -12.723000 -28.275600 -0.003300 -0.371200 1.020000 -1.373300 1.523500 2.752000 -1.025500 1.987700 1.327800 -0.337800 0.989100 -0.191600 -4.038000 0.509500 -13.979300 9.090100 0.309600 9.591100 3.546000 0.638800 5.153300 -0.000000 0.000000 0.000000 25.349800 -24.707000 -3.430100 16.594800 -26.320500 3.906000 18.088600 -51.631800 -27.000200 0.000000 0.000000 0.000000 -7.125000 0.000000 0.000000 -13.460700 57.662100 4.223600 -0.000000 0.000000 0.000000 -24.457700 -17.686300 41.682900 -21.121600 -31.970100 -6.114200 -14.243400 -17.878000 2.039700 0.000000 0.000000 0.000000 7.125000 0.000000 -0.000000 9.901000 31.981200 3.195900
-0.335410 18.655211 0.927031 3.169775 -23.545576 -0.782181 0.000000 0.000000 0.000000 -13.770366 -4.148670 -6.338019 2.487318 9.814869 28.379326 0.208461 9.385390 -16.507021 0.850913 -5.883221 -16.445999 0.000000 0.000000 0.000000 19.527748 13.980098 -2.679668 -2.494409 -9.827706 28.420663 -1.164580 -12.506070 -28.372559 -0.003214 -0.362974 0.997311 -1.552392 1.810107 2.595422 -1.051882 2.366388 1.145912 -0.274459 1.179091 -0.298059 -3.624558 0.812637 -14.550432 8.720411 0.645147 10.388801 3.408839 0.817061 5.475953 0.000000 0.000000 0.000000 29.645630 -30.664279 -2.883028 17.496548 -27.507737 4.314153 18.696755 -56.732290 -25.972770 0.000000 0.000000 0.000000 -7.125000 0.000000 0.000000 -12.267626 56.772735 3.576775 0.000000 0.000000 0.000000 -27.203274 -25.114864 38.708002 -23.440213 -34.566544 -7.386604 -12.042655 -24.921851 1.688841 0.000000 0.000000 0.000000 7.125000 0.000000 0.000000 11.599873 31.570513 3.880030
-0.470984 18.652157 0.902745 3.901152 -22.596368 -1.439978 0.000000 0.000000 0.000000 -14.147231 -4.589581 -5.561084 2.399488 9.652776 27.859437 0.148180 9.503352 -15.826669 0.772931 -5.613202 -15.666241 0.000000 0.000000 0.000000 19.262812 13.195137 -2.467841 -2.565024 -9.955117 28.831513 -1.318050 -12.033568 -29.028097 -0.022050 -0.958123 2.633625 -2.079850 1.945829 2.284717 -1.273030 2.539677 0.963796 -0.204019 1.265635 -0.324650 -3.779945 0.966199 -15.085334 9.081506 0.790789 11.233767 3.587216 0.932867 5.818861 0.000000 0.000000 0.000000 34.076744 -37.212097 -0.535941 18.354981 -28.609259 4.717975 21.162913 -58.211459 -27.334323 0.000000 0.000000 0.000000 -7.125000 0.000000 0.000000 -10.348113 58.679237 3.483539 0.000000 0.000000 0.000000 -30.337676 -32.419815 34.234439 -25.711895 -36.922371 -8.714223 -12.319840 -34.826967 1.187208 0.000000 0.000000 0.000000 7.125000 0.000000 0.000000 11.317557 31.074128 3.919921
-0.618268 18.645588 0.878207 3.910868 -21.482054 -1.891223 0.000000 0.000000 0.000000 -13.635970 -4.467677 -5.095738 2.341440 9.543712 27.511286 0.153508 9.071343 -15.381839 0.845318 -5.863266 -16.388374 0.000000 0.000000 0.000000 19.832391 12.331684 -2.018066 -2.604557 -10.025554 29.059618 -1.376892 -12.025004 -29.417771 -0.032376 -1.161529 3.193381 -1.986532 2.065893 2.283928 -1.417972 2.697132 0.785413 -0.412682 1.346706 -0.497566 -3.500864 0.827579 -15.432586 9.286853 0.486039 11.690095 3.594467 0.828755 6.044633 0.000000 0.000000 0.000000 39.583798 -43.015525 1.612872 19.751467 -30.341452 5.405390 19.140939 -63.383203 -27.353271 0.000000 0.000000 0.000000 -7.125000 0.000000 0.000000 -12.540574 58.243299 4.103219 0.000000 0.000000 0.000000 -34.117992 -39.491154 28.373856 -27.324115 -38.485551 -9.700517 -12.095439 -44.984098 1.398597 0.000000 0.000000 0.000000 7.125000 0.000000 0.000000 11.520689 31.281043 3.934365
-0.753970 18.627381 0.867133 3.946824 -19.981920 -1.929646 0.000000 0.000000 0.000000 -13.100305 -4.549896 -5.515629 2.387573 9.630585 27.788618 0.171087 8.086156 -14.494447 0.775837 -5.623761 -15.696653 0.000000 0.000000 0.000000 20.255323 11.815569 -1.868630 -2.643061 -10.093522 29.280123 -1.389721 -12.301005 -29.731764 -0.033950 -1.186338 3.261736 -1.811198 2.034367 1.861472 -1.502632 2.667085 0.566516 -0.584601 1.332871 -0.473258 -3.746286 0.682579 -15.340927 9.666556 0.265283 11.974807 3.742620 0.744038 6.133808 0.000000 0.000000 0.000000 45.560448 -47.685299 4.319158 21.804619 -32.755029 6.480081 18.371828 -66.982206 -27.326534 0.000000 0.000000 0.000000 -7.125000 0.000000 0.000000 -13.343745 58.047234 4.306857 0.000000 0.000000 0.000000 -39.545003 -45.748183 21.603839 -28.946261 -39.972630 -10.726287 -11.725090 -53.398960 1.659114 0.000000 0.000000 0.000000 7.125000 0.000000 0.000000 11.846263 31.532634 3.976583
-0.875336 18.607873 0.860829 3.860059 -18.123733 -2.118970 0.000000 0.000000 0.000000 -12.387707 -4.568394 -6.365554 2.600906 10.018988 29.038266 0.178230 6.583548 -12.957845 0.890721 -6.014809 -16.827751 0.000000 0.000000 0.000000 20.781239 11.420397 -1.205888 -2.640404 -10.088788 29.264809 -1.421384 -12.558857 -30.154241 -0.033924 -1.187580 3.265131 -1.416288 1.785577 1.803165 -1.448660 2.345330 0.571102 -0.739953 1.172155 -0.421316 -3.864403 0.562176 -15.871084 9.194904 0.089487 13.776885 3.637534 0.654494 6.809476 0.000000 0.000000 0.000000 52.221454 -50.630450 7.573327 25.280430 -36.487085 8.456986 16.394313 -71.852767 -26.781921 0.000000 0.000000 0.000000 -7.125000 0.000000 0.000000 -15.111048 57.085469 4.544851 0.000000 0.000000 0.000000 -46.405951 -51.585888 13.466083 -30.296488 -41.146138 -11.604176 -12.834545 -58.350321 3.193178 0.000000 0.000000 0.000000 7.125000 0.000000 0.000000 11.173997 33.104215 3.311897
-0.979098 18.599987 0.856673 3.973631 -16.438320 -2.534300 0.000000 0.000000 0.000000 -11.920754 -4.509480 -7.348301 2.831646 10.417189 30.338833 0.143390 5.399036 -11.106404 1.041084 -6.489225 -18.210688 0.000000 0.000000 0.000000 21.090391 10.855574 -0.349539 -2.599760 -10.017110 29.032146 -1.332575 -13.238514 -30.151952 -0.003651 -0.387342 1.064204 -0.893273 1.692427 1.750159 -1.566638 2.235639 0.793247 -1.144044 1.117578 -0.139748 -3.602071 0.620982 -15.110438 8.401428 0.136109 15.333348 3.359670 0.625803 7.175711 0.000000 0.000000 0.000000 59.952926 -52.688898 11.285269 29.163939 -40.162712 10.867457 16.292885 -75.727764 -27.070275 0.000000 0.000000 0.000000 -7.125000 0.000000 0.000000 -15.383886 57.344661 4.726711 0.000000 0.000000 0.000000 -55.851827 -56.543976 3.180309 -31.208045 -41.905915 -12.208817 -17.377219 -62.168514 4.978239 0.000000 0.000000 0.000000 7.125000 0.000000 0.000000 7.714662 35.112220 1.894122
-1.069869 18.593499 0.839265 4.022604 -14.907906 -2.715217 0.000000 0.000000 0.000000 -11.302435 -4.651754 -8.871942 3.190669 10.997263 32.270941 0.091561 4.095984 -8.659854 1.127425 -6.744022 -18.959299 0.000000 0.000000 0.000000 21.564571 10.357270 0.082238 -2.554696 -9.936628 28.771750 -1.308626 -14.260295 -30.899222 -0.013097 -0.738781 2.030473 -0.538857 1.699173 2.046819 -1.516633 2.246653 0.838456 -1.300352 1.124523 -0.247686 -3.639772 0.886564 -13.582490 8.118951 0.430910 17.078203 3.319847 0.728762 7.451994 0.000000 0.000000 0.000000 66.998117 -52.945971 14.738847 35.371032 -45.068307 15.077766 18.193606 -79.999281 -27.376915 0.000000 0.000000 0.000000 -7.125000 0.000000 0.000000 -13.563662 58.056794 4.385604 0.000000 0.000000 0.000000 -65.732449 -58.970083 -7.805592 -34.809009 -44.670238 -14.680627 -22.606240 -67.009274 6.936328 0.000000 0.000000 0.000000 7.125000 0.000000 0.000000 3.554036 37.468409 0.666151
